<mxfile host="app.diagrams.net" agent="Mozilla/5.0 (Macintosh; Intel Mac OS X 10_15_7) AppleWebKit/537.36 (KHTML, like Gecko) Chrome/139.0.0.0 Safari/537.36" version="28.1.0">
  <diagram name="Page-1" id="mswkMOKTMpmrCU7IgL7Y">
    <mxGraphModel dx="1018" dy="597" grid="1" gridSize="10" guides="1" tooltips="1" connect="1" arrows="1" fold="1" page="1" pageScale="1" pageWidth="850" pageHeight="1100" math="0" shadow="0">
      <root>
        <mxCell id="0" />
        <mxCell id="1" parent="0" />
        <mxCell id="SHAGdViYhKISOcNkKFJp-1" value="" style="rounded=1;whiteSpace=wrap;html=1;strokeWidth=4;" parent="1" vertex="1">
          <mxGeometry x="30" y="160" width="790" height="300" as="geometry" />
        </mxCell>
        <mxCell id="SHAGdViYhKISOcNkKFJp-3" value="Bathurst 2026" style="text;strokeColor=none;fillColor=none;html=1;fontSize=24;fontStyle=1;verticalAlign=middle;align=center;" parent="1" vertex="1">
          <mxGeometry x="375" y="70" width="100" height="40" as="geometry" />
        </mxCell>
        <mxCell id="SHAGdViYhKISOcNkKFJp-4" value="CARS" style="rounded=1;whiteSpace=wrap;html=1;" parent="1" vertex="1">
          <mxGeometry x="90" y="170" width="360" height="30" as="geometry" />
        </mxCell>
        <mxCell id="SHAGdViYhKISOcNkKFJp-5" value="CARS" style="rounded=1;whiteSpace=wrap;html=1;rotation=90;" parent="1" vertex="1">
          <mxGeometry x="-50" y="300" width="230" height="30" as="geometry" />
        </mxCell>
        <mxCell id="SHAGdViYhKISOcNkKFJp-6" value="DURN" style="rounded=1;whiteSpace=wrap;html=1;" parent="1" vertex="1">
          <mxGeometry x="110" y="380" width="80" height="60" as="geometry" />
        </mxCell>
        <mxCell id="SHAGdViYhKISOcNkKFJp-12" value="JP&lt;span style=&quot;color: rgba(0, 0, 0, 0); font-family: monospace; font-size: 0px; text-align: start; text-wrap-mode: nowrap;&quot;&gt;%3CmxGraphModel%3E%3Croot%3E%3CmxCell%20id%3D%220%22%2F%3E%3CmxCell%20id%3D%221%22%20parent%3D%220%22%2F%3E%3CmxCell%20id%3D%222%22%20value%3D%22DURN%22%20style%3D%22rounded%3D1%3BwhiteSpace%3Dwrap%3Bhtml%3D1%3B%22%20vertex%3D%221%22%20parent%3D%221%22%3E%3CmxGeometry%20x%3D%22108%22%20y%3D%22380%22%20width%3D%2282%22%20height%3D%2260%22%20as%3D%22geometry%22%2F%3E%3C%2FmxCell%3E%3C%2Froot%3E%3C%2FmxGraphModel%3E&lt;/span&gt;" style="rounded=1;whiteSpace=wrap;html=1;" parent="1" vertex="1">
          <mxGeometry x="290" y="380" width="80" height="60" as="geometry" />
        </mxCell>
        <mxCell id="SHAGdViYhKISOcNkKFJp-13" value="PAP" style="rounded=1;whiteSpace=wrap;html=1;" parent="1" vertex="1">
          <mxGeometry x="200" y="380" width="80" height="60" as="geometry" />
        </mxCell>
        <mxCell id="SHAGdViYhKISOcNkKFJp-14" value="DRAPES" style="rounded=1;whiteSpace=wrap;html=1;" parent="1" vertex="1">
          <mxGeometry x="380" y="380" width="80" height="60" as="geometry" />
        </mxCell>
        <mxCell id="SHAGdViYhKISOcNkKFJp-15" value="GREG" style="rounded=1;whiteSpace=wrap;html=1;" parent="1" vertex="1">
          <mxGeometry x="470" y="380" width="80" height="60" as="geometry" />
        </mxCell>
        <mxCell id="SHAGdViYhKISOcNkKFJp-16" value="SCAF" style="rounded=1;whiteSpace=wrap;html=1;" parent="1" vertex="1">
          <mxGeometry x="560" y="380" width="80" height="60" as="geometry" />
        </mxCell>
        <mxCell id="SHAGdViYhKISOcNkKFJp-17" value="SMITH CAR AND VAN" style="rounded=1;whiteSpace=wrap;html=1;" parent="1" vertex="1">
          <mxGeometry x="460" y="170" width="320" height="30" as="geometry" />
        </mxCell>
        <mxCell id="Efiz6I8PrhkpWoFxRWcF-1" value="EXCREMENT RECEPTACLE" style="rounded=1;whiteSpace=wrap;html=1;" vertex="1" parent="1">
          <mxGeometry x="660" y="380" width="120" height="60" as="geometry" />
        </mxCell>
        <mxCell id="Efiz6I8PrhkpWoFxRWcF-2" value="FIRE" style="ellipse;whiteSpace=wrap;html=1;" vertex="1" parent="1">
          <mxGeometry x="400" y="250" width="120" height="80" as="geometry" />
        </mxCell>
        <mxCell id="Efiz6I8PrhkpWoFxRWcF-3" value="COOKING&lt;div&gt;GAZEBO&lt;/div&gt;" style="rounded=1;whiteSpace=wrap;html=1;rotation=90;" vertex="1" parent="1">
          <mxGeometry x="710" y="250" width="120" height="60" as="geometry" />
        </mxCell>
      </root>
    </mxGraphModel>
  </diagram>
</mxfile>
